<svg xmlns="http://www.w3.org/2000/svg" xmlns:xlink="http://www.w3.org/1999/xlink" width="0.76em" height="1em" preserveAspectRatio="xMidYMid meet" viewBox="0 0 769 1024" style="-ms-transform: rotate(360deg); -webkit-transform: rotate(360deg); transform: rotate(360deg);"><path d="M462 512l286 401q21 28 21 47 0 27-19 45.5t-45 18.5q-7 0-13.5-1t-11.5-3.5-8.5-4.5-8-6-5.5-5.5-5-6.5l-4-5-265-370-264 370-4 5-5 6.5-5.5 5.5-8 6-9 4.5L77 1023l-13 1q-26 0-45-18.5T0 960q0-19 21-47l286-401L16 105q-1-1-4-5.5T7.5 93 4 86.5t-2.5-10T1 64q0-26 18.5-45T65 0q38 0 56 34l263 369L648 34q18-34 56-34 27 0 45.5 19T768 64q0 7-.5 12.5t-2.5 10-3.5 6.5-4.5 6.5-4 5.5z" fill="#2b4e745c"/></svg>